<svg version="1.1" id="Layer_1" xmlns="http://www.w3.org/2000/svg" xmlns:xlink="http://www.w3.org/1999/xlink" x="0px" y="0px"
	 width="100%" viewBox="0 0 2048 2048" enable-background="new 0 0 2048 2048" xml:space="preserve">
<path fill="#000000" opacity="1.000000" stroke="none" 
	d="
M881.000000,2049.000000 
	C587.333313,2049.000000 294.166656,2049.000000 1.000000,2049.000000 
	C1.000000,1366.333374 1.000000,683.666687 1.000000,1.000000 
	C683.666687,1.000000 1366.333374,1.000000 2049.000000,1.000000 
	C2049.000000,683.666687 2049.000000,1366.333374 2049.000000,2049.000000 
	C1659.833374,2049.000000 1270.666626,2049.000000 881.000000,2049.000000 
M838.879211,1505.356934 
	C838.339478,1505.316528 837.799805,1505.276123 837.260071,1505.235718 
	C837.575073,1505.675293 837.890076,1506.114990 838.678589,1507.130005 
	C841.010681,1511.494995 843.251953,1515.911621 845.694519,1520.213867 
	C850.199707,1528.149292 854.154785,1536.511475 859.545715,1543.803711 
	C868.797729,1556.318726 878.307617,1568.776978 888.942566,1580.100708 
	C901.293274,1593.251709 914.949158,1605.179810 928.091064,1617.583130 
	C931.493835,1620.794922 934.808228,1624.221191 938.658508,1626.813477 
	C947.491028,1632.760132 956.208008,1639.134033 965.754944,1643.695557 
	C976.330688,1648.748413 987.590210,1652.667358 998.913940,1655.750610 
	C1006.213440,1657.738159 1014.161560,1657.836914 1021.824402,1657.883423 
	C1033.719971,1657.955811 1045.580566,1657.338379 1057.207642,1654.049072 
	C1069.232300,1650.647217 1080.338379,1645.394043 1090.965820,1638.979614 
	C1092.385010,1638.123047 1093.582520,1636.899902 1094.999878,1636.039551 
	C1100.212891,1632.875366 1105.934326,1630.357422 1110.617432,1626.553589 
	C1118.715088,1619.976440 1126.192505,1612.633911 1133.900635,1605.580322 
	C1135.771973,1603.867920 1137.460693,1601.954102 1139.351807,1600.265381 
	C1144.174316,1595.959229 1149.307983,1591.970947 1153.858276,1587.398926 
	C1158.526733,1582.708496 1162.743530,1577.553589 1166.992798,1572.464111 
	C1174.068970,1563.988525 1181.305420,1555.621338 1187.913330,1546.788818 
	C1192.519409,1540.631836 1196.336548,1533.860352 1200.234619,1527.204224 
	C1204.387695,1520.112671 1208.221069,1512.833618 1212.885254,1504.384399 
	C1209.754395,1506.070923 1207.949463,1506.960327 1206.226807,1507.987305 
	C1201.814575,1510.618408 1197.577026,1513.579712 1193.017700,1515.917969 
	C1185.439331,1519.804565 1177.847900,1523.781006 1169.927246,1526.858154 
	C1158.472290,1531.308228 1146.736572,1535.041992 1135.084961,1538.976318 
	C1129.777710,1540.768311 1124.465820,1542.671997 1119.013306,1543.880981 
	C1110.072266,1545.863647 1101.067871,1547.741943 1091.991943,1548.883911 
	C1082.557251,1550.071411 1073.015625,1550.577759 1063.503784,1550.942261 
	C1049.098755,1551.494629 1034.680420,1551.792480 1020.265137,1551.936523 
	C1014.685425,1551.992310 1009.102539,1551.221680 1003.514160,1551.023438 
	C991.935669,1550.612671 980.350403,1550.390747 968.772339,1549.970093 
	C964.515808,1549.815308 960.172546,1549.777954 956.042053,1548.885376 
	C946.646545,1546.854736 937.364807,1544.301025 928.023987,1542.012451 
	C923.026672,1540.788086 917.852722,1540.103516 913.020691,1538.421753 
	C901.266785,1534.330811 889.116272,1531.401489 878.091919,1525.161377 
	C868.964172,1519.994629 859.230286,1515.900879 849.780334,1511.300049 
	C846.188904,1509.551514 842.640503,1507.714600 838.879211,1505.356934 
M1434.084106,1174.110352 
	C1436.926636,1170.390625 1439.721680,1166.633423 1442.620972,1162.958374 
	C1450.292603,1153.234253 1458.250488,1143.725342 1465.644897,1133.795898 
	C1474.272461,1122.210693 1482.512451,1110.332397 1490.756592,1098.467407 
	C1499.223511,1086.281982 1507.220459,1073.761841 1515.918945,1061.747314 
	C1526.237427,1047.495361 1536.964966,1033.533447 1547.746948,1019.625549 
	C1554.763184,1010.574890 1562.026489,1001.702026 1569.482178,993.009399 
	C1577.547852,983.605286 1585.803223,974.349976 1594.295776,965.331177 
	C1598.882202,960.460571 1604.166504,956.251038 1609.082642,951.685852 
	C1614.189819,946.943298 1618.988770,941.834717 1624.360474,937.418945 
	C1632.602905,930.643127 1640.931030,923.897278 1649.747681,917.911560 
	C1662.388306,909.329773 1674.981201,900.417419 1688.554321,893.540588 
	C1703.051392,886.195801 1718.510498,880.627747 1733.841675,875.093384 
	C1744.646118,871.193115 1755.892944,868.468811 1767.035156,865.578003 
	C1771.463379,864.429199 1776.134644,864.181458 1780.708984,863.639526 
	C1791.269165,862.388611 1801.818115,860.504456 1812.408813,860.208618 
	C1821.981201,859.941162 1831.531860,859.695984 1841.287598,861.624939 
	C1854.012451,864.140930 1867.102783,863.953125 1879.933228,867.599854 
	C1892.575317,871.192993 1905.337158,874.067505 1917.356689,879.605713 
	C1926.516235,883.826233 1935.894531,887.570007 1945.147705,891.589844 
	C1957.840332,897.103821 1969.012329,904.957520 1979.486450,913.910583 
	C1982.168823,916.203491 1985.172607,918.120300 1988.028809,920.209900 
	C1988.453247,919.945190 1988.877808,919.680420 1989.302246,919.415710 
	C1988.626831,916.827942 1988.431396,913.979065 1987.190918,911.698792 
	C1982.467773,903.016113 1977.556641,894.426514 1972.434937,885.972290 
	C1966.035034,875.408203 1959.942383,864.583618 1952.659790,854.646362 
	C1942.471680,840.744324 1931.347534,827.525452 1920.532104,814.088074 
	C1917.866943,810.776550 1915.171753,807.356750 1911.921143,804.677185 
	C1905.673340,799.526978 1899.146240,794.687378 1892.501099,790.054199 
	C1883.648804,783.882019 1874.958008,777.318970 1865.504150,772.206665 
	C1851.373657,764.565735 1836.293457,758.749512 1820.625977,755.158447 
	C1810.574463,752.854736 1800.148682,751.754639 1789.831055,751.173157 
	C1780.933350,750.671814 1771.936157,751.446106 1763.011719,752.070435 
	C1755.960205,752.563843 1748.803223,753.056946 1741.961792,754.681702 
	C1732.518677,756.924561 1723.214111,759.911499 1714.062988,763.176025 
	C1705.514893,766.225464 1697.117432,769.780701 1688.884766,773.609924 
	C1679.092651,778.164368 1669.441162,783.051941 1659.931519,788.172058 
	C1653.580200,791.591675 1647.144531,795.114929 1641.519531,799.568176 
	C1630.417480,808.357483 1619.654053,817.604797 1609.128662,827.082397 
	C1600.929565,834.465027 1592.830688,842.066162 1585.536865,850.320740 
	C1575.588501,861.579346 1565.941895,873.183044 1557.102051,885.320557 
	C1548.216675,897.520874 1539.966919,910.259094 1532.373901,923.305908 
	C1523.777710,938.076355 1516.154175,953.416931 1508.257446,968.587585 
	C1506.098633,972.734924 1504.545044,977.193054 1502.597046,981.455139 
	C1497.832886,991.878662 1492.738647,1002.160339 1488.274902,1012.709534 
	C1484.436279,1021.780945 1481.205444,1031.114380 1477.850830,1040.384399 
	C1473.752319,1051.710205 1469.581787,1063.017944 1465.843872,1074.464600 
	C1460.000366,1092.358887 1454.624756,1110.406128 1448.791992,1128.304077 
	C1445.656372,1137.925171 1441.928589,1147.352051 1438.569336,1156.902222 
	C1436.584595,1162.544800 1434.797729,1168.256958 1432.450928,1174.208252 
	C1432.425537,1174.608276 1432.400024,1175.008179 1432.374512,1175.408203 
	C1432.727295,1175.047363 1433.080200,1174.686401 1434.084106,1174.110352 
M1343.953735,1336.429932 
	C1346.134644,1332.628784 1348.504761,1328.922119 1350.459473,1325.007935 
	C1355.399536,1315.114990 1360.308228,1305.200684 1364.943848,1295.163086 
	C1371.443115,1281.090210 1377.989624,1267.024414 1383.921997,1252.709595 
	C1387.567383,1243.913696 1389.401123,1234.337524 1393.341675,1225.701660 
	C1397.089722,1217.488159 1401.709717,1209.752075 1404.653564,1201.058838 
	C1408.471191,1189.785400 1413.593018,1178.958130 1418.002930,1167.878906 
	C1421.781616,1158.385864 1425.462891,1148.850464 1428.978394,1139.257080 
	C1432.778320,1128.887329 1436.473999,1118.474731 1439.958862,1107.995361 
	C1443.093262,1098.570190 1445.721802,1088.976562 1448.864746,1079.554321 
	C1452.006226,1070.135864 1455.636963,1060.880981 1458.810303,1051.472534 
	C1461.162720,1044.497803 1462.757690,1037.253296 1465.346680,1030.376221 
	C1469.615845,1019.035339 1474.304810,1007.847351 1479.024170,996.682678 
	C1483.372192,986.396423 1487.794922,976.132202 1492.550049,966.030212 
	C1497.340454,955.853027 1502.544434,945.869202 1507.637207,935.836243 
	C1510.692017,929.818359 1513.686157,923.755981 1517.057373,917.915527 
	C1521.739746,909.803406 1526.702271,901.850952 1531.640747,893.889648 
	C1534.085205,889.948669 1536.658936,886.080750 1539.331055,882.290222 
	C1541.782471,878.812439 1544.488159,875.515259 1547.002441,872.080383 
	C1550.053589,867.911804 1552.811768,863.510681 1556.075684,859.520081 
	C1560.700439,853.865845 1565.574463,848.405701 1570.518921,843.025330 
	C1576.530273,836.484314 1582.532593,829.914124 1588.894409,823.721924 
	C1595.519653,817.273499 1602.491577,811.172241 1609.453857,805.081665 
	C1616.438843,798.971497 1623.414307,792.822998 1630.750000,787.151794 
	C1635.292480,783.640015 1640.524902,781.028015 1645.400879,777.938477 
	C1652.960938,773.148010 1660.207275,767.778748 1668.085693,763.594727 
	C1678.671265,757.973145 1689.482056,752.593323 1700.657227,748.314087 
	C1712.432983,743.804871 1724.552734,739.698914 1736.887451,737.279541 
	C1749.976196,734.712219 1763.470947,733.604492 1776.830444,733.178833 
	C1794.811279,732.605896 1812.737671,734.131653 1830.205566,739.029480 
	C1833.599976,739.981201 1837.146973,740.561462 1840.372559,741.912476 
	C1851.299072,746.488708 1862.909058,749.436829 1872.676758,756.775635 
	C1878.667603,761.276978 1885.836914,764.194336 1891.918335,768.595093 
	C1898.622803,773.446716 1904.717651,779.147339 1911.021973,784.543579 
	C1916.315063,789.074158 1922.016846,793.255920 1926.660034,798.386353 
	C1933.525146,805.971680 1939.886475,814.059021 1945.959595,822.302856 
	C1952.944824,831.784485 1959.470581,841.610596 1966.020508,851.404541 
	C1969.376221,856.422546 1972.349487,861.696472 1975.495605,866.854736 
	C1975.873535,866.657410 1976.251465,866.460083 1976.629395,866.262756 
	C1975.093262,863.168457 1973.364014,860.152771 1972.065674,856.961731 
	C1970.079224,852.078674 1968.319824,847.098999 1966.590210,842.116516 
	C1963.697388,833.782104 1960.329834,825.783875 1955.284912,818.376709 
	C1949.986206,810.597107 1945.929321,801.983521 1940.922729,793.989197 
	C1937.411987,788.383301 1933.434448,783.030396 1929.273193,777.881592 
	C1924.561768,772.052124 1919.463623,766.530212 1914.437256,760.961609 
	C1910.013306,756.060303 1905.661621,751.065491 1900.907349,746.497620 
	C1894.654541,740.489746 1888.052734,734.843750 1881.574707,729.071594 
	C1876.216919,724.297485 1871.047119,719.274902 1865.389404,714.883789 
	C1856.852783,708.258362 1848.175049,701.767273 1839.163818,695.814819 
	C1830.559570,690.131165 1821.624512,684.883728 1812.510864,680.056396 
	C1805.301025,676.237427 1797.762329,672.891663 1790.079468,670.148254 
	C1778.624390,666.057739 1766.994751,662.394897 1755.285400,659.097046 
	C1746.499390,656.622498 1737.552856,654.435425 1728.531128,653.147339 
	C1715.445312,651.279114 1702.241211,649.426025 1689.062378,649.226562 
	C1671.908447,648.966736 1654.724854,650.228821 1637.565308,651.066956 
	C1632.717285,651.303711 1627.803467,651.929077 1623.104004,653.109070 
	C1613.530396,655.513062 1604.006348,658.178833 1594.605103,661.184570 
	C1586.399414,663.807983 1578.245239,666.709778 1570.339233,670.117493 
	C1563.840332,672.918823 1557.548218,676.331299 1551.509033,680.035034 
	C1543.389160,685.015015 1535.534912,690.440369 1527.705200,695.874268 
	C1524.861816,697.847656 1522.415283,700.393311 1519.791260,702.681885 
	C1516.516235,705.538025 1513.122314,708.271423 1510.001587,711.287292 
	C1505.526367,715.612000 1501.208740,720.103027 1496.903198,724.598999 
	C1492.498169,729.198853 1487.907471,733.662415 1483.909058,738.599548 
	C1478.933228,744.743591 1474.331421,751.208740 1469.842041,757.723877 
	C1464.559082,765.390625 1459.267822,773.081543 1454.539307,781.091980 
	C1449.992310,788.794678 1446.067261,796.872375 1442.035034,804.869080 
	C1436.574463,815.698486 1431.270996,826.607117 1425.902710,837.482910 
	C1420.627686,848.169983 1415.285156,858.824463 1410.106934,869.558289 
	C1406.618408,876.789551 1403.206787,884.066345 1400.045288,891.444763 
	C1396.208740,900.398865 1392.496826,909.415100 1389.050171,918.525269 
	C1384.867920,929.580200 1380.955200,940.738831 1377.044556,951.894165 
	C1373.294556,962.591309 1369.543335,973.292664 1366.083740,984.085510 
	C1363.688843,991.556580 1361.895874,999.218323 1359.641357,1006.737122 
	C1356.189819,1018.248108 1352.423584,1029.666260 1349.077026,1041.206665 
	C1346.799072,1049.061768 1345.028320,1057.063354 1342.995972,1064.990601 
	C1341.202881,1071.984985 1339.271729,1078.945435 1337.563354,1085.960205 
	C1335.282471,1095.325684 1333.119507,1104.720703 1330.982544,1114.120483 
	C1329.801880,1119.313110 1328.925659,1124.577637 1327.649658,1129.744995 
	C1325.544800,1138.268066 1323.114990,1146.711304 1321.045532,1155.242432 
	C1319.942017,1159.790894 1319.370972,1164.465942 1318.444824,1169.060669 
	C1317.014160,1176.157349 1315.408325,1183.219116 1314.021118,1190.323853 
	C1312.843140,1196.358398 1312.108643,1202.487183 1310.748169,1208.476685 
	C1308.695312,1217.515625 1306.076172,1226.426880 1304.068359,1235.474609 
	C1302.737061,1241.473755 1302.130615,1247.630371 1301.061646,1253.692017 
	C1299.436523,1262.907471 1297.714722,1272.106201 1295.987061,1281.303223 
	C1295.183228,1285.582153 1294.171387,1289.823730 1293.432129,1294.112915 
	C1292.562012,1299.161987 1291.854858,1304.239868 1291.133789,1309.313354 
	C1290.531494,1313.550659 1289.979980,1317.796021 1289.475342,1322.045898 
	C1289.338745,1323.196411 1289.454590,1324.376953 1289.454590,1324.705078 
	C1288.226318,1326.076416 1287.085327,1326.802002 1286.791016,1327.781982 
	C1285.919067,1330.686279 1285.326782,1333.679810 1284.722168,1336.658081 
	C1282.129639,1349.427490 1279.628662,1362.215820 1276.982300,1374.973999 
	C1275.087280,1384.109497 1272.983032,1393.201294 1271.028564,1402.324707 
	C1268.140747,1415.804810 1265.302856,1429.295532 1262.140137,1444.213867 
	C1267.708374,1438.356934 1272.627441,1433.447876 1277.240356,1428.266113 
	C1283.498657,1421.236084 1289.826050,1414.232056 1295.576904,1406.794067 
	C1304.620728,1395.097168 1313.465088,1383.225586 1321.895630,1371.082031 
	C1327.130127,1363.541870 1331.375977,1355.320801 1336.201782,1347.489258 
	C1338.428711,1343.875366 1340.981689,1340.462524 1343.953735,1336.429932 
M362.512360,754.000488 
	C366.292786,755.785889 370.252380,757.272400 373.820496,759.411865 
	C385.236542,766.256775 396.704865,773.047791 407.770782,780.432434 
	C416.351654,786.158752 424.086548,793.157166 432.692993,798.839600 
	C442.972260,805.626526 451.437439,814.305054 459.955597,822.966003 
	C466.280945,829.397400 472.401276,836.045532 478.354126,842.824402 
	C486.626373,852.244507 494.939453,861.654480 502.686859,871.500183 
	C507.537811,877.664856 511.397705,884.611572 515.673279,891.226135 
	C522.421631,901.666382 529.578796,911.873718 535.758667,922.641296 
	C542.008484,933.530518 547.522644,944.865967 552.915710,956.216553 
	C558.868469,968.745117 564.645996,981.378540 569.898926,994.212219 
	C575.873718,1008.809570 581.265747,1023.648621 586.753662,1038.441040 
	C590.309814,1048.026367 593.679565,1057.683838 596.959534,1067.367676 
	C600.812622,1078.743530 604.431213,1090.198486 608.237000,1101.590698 
	C612.651428,1114.804688 617.180603,1127.980347 621.603577,1141.191650 
	C622.315491,1143.318115 622.492310,1145.640381 623.327881,1147.705811 
	C627.813049,1158.792847 632.499268,1169.798706 636.978699,1180.888062 
	C641.337952,1191.679810 645.418030,1202.585205 649.833679,1213.353394 
	C653.385620,1222.015381 658.135315,1230.289795 660.742371,1239.207275 
	C663.460754,1248.505615 667.466736,1257.172241 671.055298,1266.054565 
	C673.873352,1273.029541 676.865906,1279.941650 680.020508,1286.770874 
	C682.777344,1292.739136 685.791321,1298.593262 688.830688,1304.425171 
	C692.900696,1312.234863 696.878906,1320.106201 701.303162,1327.714478 
	C708.240417,1339.644287 715.440491,1351.423706 722.678772,1363.174805 
	C727.306030,1370.687012 731.779053,1378.352295 737.076233,1385.379883 
	C745.230164,1396.197632 753.901062,1406.636841 762.605652,1417.024536 
	C768.358948,1423.890381 774.490662,1430.444946 780.590027,1437.011353 
	C782.647156,1439.226074 785.126160,1441.048828 787.879639,1443.459961 
	C784.941284,1432.471069 782.029724,1422.260742 779.509033,1411.954834 
	C777.215088,1402.575928 775.240479,1393.114624 773.316956,1383.650635 
	C771.100830,1372.746948 769.189819,1361.781250 766.957214,1350.881104 
	C765.868774,1345.567139 764.227966,1340.368042 763.067139,1335.066528 
	C762.180725,1331.018066 762.206299,1326.685181 760.781921,1322.868530 
	C759.789124,1320.208374 758.984253,1318.112793 759.805359,1315.217407 
	C760.155518,1313.982666 758.050110,1312.233276 757.869019,1310.626709 
	C757.526123,1307.585327 758.239136,1304.388916 757.676758,1301.415039 
	C756.002930,1292.563965 753.813965,1283.811646 752.032593,1274.979126 
	C750.214844,1265.966309 748.648315,1256.902954 746.957825,1247.864380 
	C746.453430,1245.166748 745.892883,1242.479492 745.373840,1239.784546 
	C743.910950,1232.188721 742.405151,1224.600586 741.014832,1216.991455 
	C739.909058,1210.939819 739.217346,1204.801270 737.864380,1198.808960 
	C735.432129,1188.036377 732.543518,1177.367554 730.045105,1166.609009 
	C728.912354,1161.731323 728.469849,1156.693726 727.342529,1151.814575 
	C724.681702,1140.297852 721.821106,1128.827148 718.996460,1117.348877 
	C717.040466,1109.400269 714.999329,1101.472412 713.015137,1093.530640 
	C710.991516,1085.431152 709.086243,1077.300659 706.950562,1069.230957 
	C705.230591,1062.732422 703.216125,1056.312256 701.383057,1049.842896 
	C699.249695,1042.313965 697.139954,1034.778076 695.077393,1027.229370 
	C692.498657,1017.791504 690.177124,1008.278320 687.376099,998.907776 
	C684.682251,989.895508 681.449951,981.045532 678.589661,972.081055 
	C677.126221,967.494263 676.234680,962.713440 674.603821,958.193848 
	C670.549011,946.956909 666.186096,935.831543 662.009277,924.638062 
	C659.045898,916.696228 656.527527,908.569275 653.193726,900.789307 
	C648.593079,890.053284 643.421387,879.561646 638.475525,868.974060 
	C635.003784,861.542419 631.580627,854.086487 627.993591,846.710510 
	C622.116455,834.625549 616.184937,822.566040 610.159363,810.554443 
	C605.677795,801.620850 601.063049,792.752625 596.402954,783.910461 
	C594.318176,779.954895 592.235901,775.955322 589.700317,772.288391 
	C583.615417,763.488159 577.377930,754.787292 570.980103,746.211853 
	C566.367981,740.029785 561.631348,733.907898 556.520081,728.140442 
	C551.831116,722.849365 546.785461,717.822937 541.507935,713.116028 
	C531.577393,704.259033 521.985901,694.818481 511.092651,687.303040 
	C500.822266,680.217224 489.285522,674.800171 477.880402,669.578186 
	C468.619965,665.338196 458.811310,662.220642 449.091461,659.083252 
	C441.618469,656.671082 434.003448,654.398926 426.276215,653.144775 
	C414.700562,651.265991 402.989258,649.419006 391.303467,649.188293 
	C366.063446,648.690002 340.753204,648.091736 315.977051,654.909912 
	C303.742523,658.276794 291.115967,660.237305 278.920135,663.721008 
	C269.560913,666.394531 260.576172,670.399231 251.467438,673.921875 
	C245.641891,676.174683 239.615463,678.121033 234.175934,681.109253 
	C225.890701,685.660767 217.891830,690.781250 210.036484,696.054993 
	C201.164764,702.011108 192.223495,707.961182 183.972519,714.719666 
	C173.735901,723.104736 164.043304,732.174133 154.369247,741.219055 
	C147.441498,747.696106 140.743896,754.445740 134.293854,761.398621 
	C129.416931,766.655884 124.985252,772.341675 120.551712,777.990845 
	C115.220139,784.784241 109.753311,791.512939 104.984001,798.694031 
	C100.626457,805.255188 96.906937,812.272278 93.299980,819.290833 
	C89.570236,826.548218 86.251518,834.020630 82.877243,841.455383 
	C81.101097,845.368958 79.499466,849.368835 77.987961,853.393188 
	C76.757561,856.669189 75.778564,860.039612 74.688095,863.368225 
	C81.423431,854.247986 86.765770,844.471069 93.231735,835.504456 
	C100.971848,824.770752 109.312477,814.412292 118.067276,804.486023 
	C125.352341,796.226257 133.331635,788.513794 141.533493,781.149170 
	C147.555725,775.741699 154.316483,771.119385 160.967407,766.460266 
	C167.212997,762.085083 173.481003,757.608154 180.226166,754.116943 
	C187.277206,750.467529 194.853134,747.793030 202.302612,744.963501 
	C209.748932,742.135193 217.139633,738.606873 224.882233,737.238159 
	C237.389511,735.027283 250.147110,733.468140 262.831604,733.204773 
	C281.450653,732.818237 300.082184,733.924866 318.215942,739.012207 
	C322.230743,740.138489 326.443329,740.659668 330.345978,742.066528 
	C340.862427,745.857788 351.260742,749.976685 362.512360,754.000488 
M199.423904,764.974915 
	C196.039368,766.620667 192.511475,768.027405 189.296326,769.955627 
	C178.259140,776.575012 167.157242,783.114258 156.436768,790.222168 
	C151.204697,793.691162 146.571442,798.151001 142.004288,802.515137 
	C134.654266,809.538330 127.102966,816.442810 120.513535,824.147339 
	C111.811440,834.322083 103.880928,845.164001 95.777435,855.839600 
	C92.938095,859.580078 90.459084,863.610535 88.012878,867.628662 
	C85.330215,872.035156 82.971077,876.638306 80.300758,881.052856 
	C75.285835,889.343384 69.941353,897.441895 65.147377,905.855957 
	C62.663029,910.216248 61.063404,915.080566 59.064079,919.717224 
	C59.523178,919.975708 59.982277,920.234192 60.441372,920.492676 
	C61.813278,919.644836 63.283401,918.921265 64.540253,917.927856 
	C70.283401,913.388062 75.630760,908.249268 81.756172,904.315918 
	C89.517647,899.332153 97.740128,894.989990 106.043770,890.945984 
	C116.635193,885.787781 127.291656,880.625366 138.316849,876.533875 
	C149.565445,872.359497 161.112595,868.536987 172.858917,866.268799 
	C188.224609,863.301697 203.877914,861.642578 219.475311,860.111938 
	C232.936478,858.791016 246.317383,860.835510 259.616577,862.956543 
	C269.938019,864.602722 280.410950,865.642822 290.531616,868.117554 
	C303.465637,871.280212 316.191559,875.375549 328.855530,879.531067 
	C336.722992,882.112671 344.617950,884.954041 351.949402,888.744812 
	C362.758850,894.334106 373.498596,900.261230 383.505096,907.152344 
	C398.219666,917.285645 412.387573,928.232910 426.528778,939.169067 
	C432.305908,943.636841 437.397949,948.989136 442.813995,953.925476 
	C448.088715,958.733032 453.840118,963.110901 458.572968,968.401428 
	C470.794128,982.062866 482.671295,996.037415 494.475372,1010.063965 
	C499.916901,1016.530029 504.966461,1023.335754 510.008484,1030.125122 
	C514.420288,1036.065796 518.491882,1042.258179 522.858582,1048.233521 
	C529.787659,1057.715576 536.913513,1067.054077 543.812012,1076.557861 
	C549.274231,1084.083130 554.545044,1091.748047 559.854614,1099.383179 
	C564.533142,1106.110962 569.209961,1112.841553 573.770020,1119.649536 
	C577.177856,1124.737305 580.077576,1130.194580 583.772949,1135.054321 
	C590.428223,1143.806519 597.488342,1152.251953 604.423157,1160.789917 
	C607.953491,1165.136475 611.578796,1169.405884 615.161133,1173.710083 
	C615.851562,1171.991699 615.751831,1170.849609 615.373840,1169.808716 
	C610.295654,1155.823486 605.035217,1141.902710 600.114929,1127.862549 
	C595.895996,1115.823486 592.062744,1103.649414 588.045593,1091.539551 
	C582.717834,1075.479126 577.520874,1059.373047 571.988525,1043.383301 
	C568.609680,1033.617310 564.842407,1023.978394 561.000000,1014.382263 
	C557.253906,1005.026794 553.277039,995.760559 549.241577,986.524963 
	C544.930420,976.658447 540.503479,966.840637 535.986450,957.066528 
	C533.638428,951.985840 531.213074,946.914917 528.419617,942.072083 
	C524.282104,934.899048 519.830750,927.904846 515.432739,920.884827 
	C508.707458,910.150208 502.459991,899.058899 494.999115,888.858093 
	C487.156952,878.136047 478.176422,868.240906 469.595917,858.066589 
	C463.707306,851.084106 458.233734,843.608582 451.547882,837.472168 
	C438.556702,825.548523 425.076721,814.121521 411.333038,803.068420 
	C404.181122,797.316650 396.264008,792.401062 388.278351,787.831665 
	C379.338837,782.716431 369.811188,778.640198 360.752747,773.719116 
	C344.737610,765.018860 327.464569,759.655273 309.991425,755.253906 
	C299.538849,752.620911 288.521088,751.551025 277.708893,751.176147 
	C258.582611,750.512939 239.437866,751.106018 221.031479,757.497253 
	C214.071823,759.913879 207.140472,762.411987 199.423904,764.974915 
M1202.019165,1376.494873 
	C1199.556763,1377.433105 1197.014282,1378.204224 1194.645996,1379.338989 
	C1185.292480,1383.821045 1176.154297,1388.793457 1166.628174,1392.862915 
	C1157.422241,1396.795410 1147.933838,1400.140991 1138.396362,1403.205322 
	C1124.337891,1407.722168 1110.210205,1412.077393 1095.948730,1415.890747 
	C1086.665649,1418.373047 1077.151245,1420.175171 1067.635132,1421.555298 
	C1054.882324,1423.404663 1042.057373,1425.070679 1029.205688,1425.802490 
	C1021.662354,1426.232056 1014.077698,1425.787842 1006.331482,1424.430908 
	C992.991516,1422.094238 979.272949,1422.163208 966.080261,1418.129761 
	C957.407227,1415.478149 948.266968,1414.350952 939.601501,1411.679443 
	C923.511780,1406.719238 907.556213,1401.300415 891.664124,1395.731934 
	C883.057922,1392.716431 874.569763,1389.281738 866.259705,1385.524414 
	C856.151184,1380.953857 846.224792,1375.965454 836.333984,1370.932983 
	C827.455872,1366.415894 818.725403,1361.607544 809.943298,1356.902588 
	C803.843140,1353.634644 797.765686,1350.324219 791.157776,1346.751465 
	C791.157776,1348.693481 790.929138,1350.033325 791.194824,1351.266602 
	C792.901001,1359.186279 794.706421,1367.084717 796.496704,1374.986206 
	C799.352966,1387.592773 802.222961,1400.196045 805.086853,1412.800781 
	C806.397156,1418.567993 807.428101,1424.416626 809.078186,1430.084961 
	C811.966492,1440.006714 815.621948,1449.716187 818.237366,1459.702881 
	C820.983337,1470.187988 826.195435,1478.235229 835.948608,1483.544922 
	C844.127991,1487.998169 851.543823,1493.875488 859.790466,1498.177856 
	C870.829285,1503.936890 882.108032,1509.394287 893.710815,1513.875610 
	C909.848389,1520.108276 926.248901,1525.751953 942.796387,1530.796143 
	C952.390625,1533.720581 962.411377,1535.781860 972.386292,1536.799927 
	C988.820984,1538.477173 1005.366760,1539.154663 1021.881409,1539.908691 
	C1027.300659,1540.156006 1032.766113,1539.104980 1038.214844,1539.043823 
	C1052.989502,1538.877930 1067.714844,1538.781250 1082.214600,1535.107544 
	C1091.968140,1532.636353 1102.180786,1531.770630 1111.729004,1528.740479 
	C1128.092651,1523.547485 1144.120117,1517.285034 1160.246582,1511.356812 
	C1180.125732,1504.049316 1198.321167,1493.469849 1215.912720,1481.873901 
	C1220.274292,1478.998779 1224.370728,1475.128296 1227.285156,1470.830933 
	C1229.818726,1467.095337 1230.638062,1462.148926 1231.991333,1457.670044 
	C1235.740479,1445.261963 1239.633789,1432.888062 1242.969604,1420.367310 
	C1245.688232,1410.163086 1247.778076,1399.786133 1249.967651,1389.447876 
	C1251.327881,1383.024902 1252.231567,1376.505859 1253.562500,1370.075928 
	C1255.103516,1362.630859 1256.888306,1355.236084 1258.861938,1346.517578 
	C1248.109863,1352.322632 1238.816406,1357.430176 1229.438354,1362.377075 
	C1220.574097,1367.052856 1211.620605,1371.559692 1202.019165,1376.494873 
z"/>
<path fill="#FFFFFF" opacity="1.000000" stroke="none" 
	d="
M1343.670288,1336.694214 
	C1340.981689,1340.462524 1338.428711,1343.875366 1336.201782,1347.489258 
	C1331.375977,1355.320801 1327.130127,1363.541870 1321.895630,1371.082031 
	C1313.465088,1383.225586 1304.620728,1395.097168 1295.576904,1406.794067 
	C1289.826050,1414.232056 1283.498657,1421.236084 1277.240356,1428.266113 
	C1272.627441,1433.447876 1267.708374,1438.356934 1262.140137,1444.213867 
	C1265.302856,1429.295532 1268.140747,1415.804810 1271.028564,1402.324707 
	C1272.983032,1393.201294 1275.087280,1384.109497 1276.982300,1374.973999 
	C1279.628662,1362.215820 1282.129639,1349.427490 1284.722168,1336.658081 
	C1285.326782,1333.679810 1285.919067,1330.686279 1286.791016,1327.781982 
	C1287.085327,1326.802002 1288.226318,1326.076416 1289.454590,1324.705078 
	C1289.454590,1324.376953 1289.338745,1323.196411 1289.475342,1322.045898 
	C1289.979980,1317.796021 1290.531494,1313.550659 1291.133789,1309.313354 
	C1291.854858,1304.239868 1292.562012,1299.161987 1293.432129,1294.112915 
	C1294.171387,1289.823730 1295.183228,1285.582153 1295.987061,1281.303223 
	C1297.714722,1272.106201 1299.436523,1262.907471 1301.061646,1253.692017 
	C1302.130615,1247.630371 1302.737061,1241.473755 1304.068359,1235.474609 
	C1306.076172,1226.426880 1308.695312,1217.515625 1310.748169,1208.476685 
	C1312.108643,1202.487183 1312.843140,1196.358398 1314.021118,1190.323853 
	C1315.408325,1183.219116 1317.014160,1176.157349 1318.444824,1169.060669 
	C1319.370972,1164.465942 1319.942017,1159.790894 1321.045532,1155.242432 
	C1323.114990,1146.711304 1325.544800,1138.268066 1327.649658,1129.744995 
	C1328.925659,1124.577637 1329.801880,1119.313110 1330.982544,1114.120483 
	C1333.119507,1104.720703 1335.282471,1095.325684 1337.563354,1085.960205 
	C1339.271729,1078.945435 1341.202881,1071.984985 1342.995972,1064.990601 
	C1345.028320,1057.063354 1346.799072,1049.061768 1349.077026,1041.206665 
	C1352.423584,1029.666260 1356.189819,1018.248108 1359.641357,1006.737122 
	C1361.895874,999.218323 1363.688843,991.556580 1366.083740,984.085510 
	C1369.543335,973.292664 1373.294556,962.591309 1377.044556,951.894165 
	C1380.955200,940.738831 1384.867920,929.580200 1389.050171,918.525269 
	C1392.496826,909.415100 1396.208740,900.398865 1400.045288,891.444763 
	C1403.206787,884.066345 1406.618408,876.789551 1410.106934,869.558289 
	C1415.285156,858.824463 1420.627686,848.169983 1425.902710,837.482910 
	C1431.270996,826.607117 1436.574463,815.698486 1442.035034,804.869080 
	C1446.067261,796.872375 1449.992310,788.794678 1454.539307,781.091980 
	C1459.267822,773.081543 1464.559082,765.390625 1469.842041,757.723877 
	C1474.331421,751.208740 1478.933228,744.743591 1483.909058,738.599548 
	C1487.907471,733.662415 1492.498169,729.198853 1496.903198,724.598999 
	C1501.208740,720.103027 1505.526367,715.612000 1510.001587,711.287292 
	C1513.122314,708.271423 1516.516235,705.538025 1519.791260,702.681885 
	C1522.415283,700.393311 1524.861816,697.847656 1527.705200,695.874268 
	C1535.534912,690.440369 1543.389160,685.015015 1551.509033,680.035034 
	C1557.548218,676.331299 1563.840332,672.918823 1570.339233,670.117493 
	C1578.245239,666.709778 1586.399414,663.807983 1594.605103,661.184570 
	C1604.006348,658.178833 1613.530396,655.513062 1623.104004,653.109070 
	C1627.803467,651.929077 1632.717285,651.303711 1637.565308,651.066956 
	C1654.724854,650.228821 1671.908447,648.966736 1689.062378,649.226562 
	C1702.241211,649.426025 1715.445312,651.279114 1728.531128,653.147339 
	C1737.552856,654.435425 1746.499390,656.622498 1755.285400,659.097046 
	C1766.994751,662.394897 1778.624390,666.057739 1790.079468,670.148254 
	C1797.762329,672.891663 1805.301025,676.237427 1812.510864,680.056396 
	C1821.624512,684.883728 1830.559570,690.131165 1839.163818,695.814819 
	C1848.175049,701.767273 1856.852783,708.258362 1865.389404,714.883789 
	C1871.047119,719.274902 1876.216919,724.297485 1881.574707,729.071594 
	C1888.052734,734.843750 1894.654541,740.489746 1900.907349,746.497620 
	C1905.661621,751.065491 1910.013306,756.060303 1914.437256,760.961609 
	C1919.463623,766.530212 1924.561768,772.052124 1929.273193,777.881592 
	C1933.434448,783.030396 1937.411987,788.383301 1940.922729,793.989197 
	C1945.929321,801.983521 1949.986206,810.597107 1955.284912,818.376709 
	C1960.329834,825.783875 1963.697388,833.782104 1966.590210,842.116516 
	C1968.319824,847.098999 1970.079224,852.078674 1972.065674,856.961731 
	C1973.364014,860.152771 1975.093262,863.168457 1976.629395,866.262756 
	C1976.251465,866.460083 1975.873535,866.657410 1975.495605,866.854736 
	C1972.349487,861.696472 1969.376221,856.422546 1966.020508,851.404541 
	C1959.470581,841.610596 1952.944824,831.784485 1945.959595,822.302856 
	C1939.886475,814.059021 1933.525146,805.971680 1926.660034,798.386353 
	C1922.016846,793.255920 1916.315063,789.074158 1911.021973,784.543579 
	C1904.717651,779.147339 1898.622803,773.446716 1891.918335,768.595093 
	C1885.836914,764.194336 1878.667603,761.276978 1872.676758,756.775635 
	C1862.909058,749.436829 1851.299072,746.488708 1840.372559,741.912476 
	C1837.146973,740.561462 1833.599976,739.981201 1830.205566,739.029480 
	C1812.737671,734.131653 1794.811279,732.605896 1776.830444,733.178833 
	C1763.470947,733.604492 1749.976196,734.712219 1736.887451,737.279541 
	C1724.552734,739.698914 1712.432983,743.804871 1700.657227,748.314087 
	C1689.482056,752.593323 1678.671265,757.973145 1668.085693,763.594727 
	C1660.207275,767.778748 1652.960938,773.148010 1645.400879,777.938477 
	C1640.524902,781.028015 1635.292480,783.640015 1630.750000,787.151794 
	C1623.414307,792.822998 1616.438843,798.971497 1609.453857,805.081665 
	C1602.491577,811.172241 1595.519653,817.273499 1588.894409,823.721924 
	C1582.532593,829.914124 1576.530273,836.484314 1570.518921,843.025330 
	C1565.574463,848.405701 1560.700439,853.865845 1556.075684,859.520081 
	C1552.811768,863.510681 1550.053589,867.911804 1547.002441,872.080383 
	C1544.488159,875.515259 1541.782471,878.812439 1539.331055,882.290222 
	C1536.658936,886.080750 1534.085205,889.948669 1531.640747,893.889648 
	C1526.702271,901.850952 1521.739746,909.803406 1517.057373,917.915527 
	C1513.686157,923.755981 1510.692017,929.818359 1507.637207,935.836243 
	C1502.544434,945.869202 1497.340454,955.853027 1492.550049,966.030212 
	C1487.794922,976.132202 1483.372192,986.396423 1479.024170,996.682678 
	C1474.304810,1007.847351 1469.615845,1019.035339 1465.346680,1030.376221 
	C1462.757690,1037.253296 1461.162720,1044.497803 1458.810303,1051.472534 
	C1455.636963,1060.880981 1452.006226,1070.135864 1448.864746,1079.554321 
	C1445.721802,1088.976562 1443.093262,1098.570190 1439.958862,1107.995361 
	C1436.473999,1118.474731 1432.778320,1128.887329 1428.978394,1139.257080 
	C1425.462891,1148.850464 1421.781616,1158.385864 1418.002930,1167.878906 
	C1413.593018,1178.958130 1408.471191,1189.785400 1404.653564,1201.058838 
	C1401.709717,1209.752075 1397.089722,1217.488159 1393.341675,1225.701660 
	C1389.401123,1234.337524 1387.567383,1243.913696 1383.921997,1252.709595 
	C1377.989624,1267.024414 1371.443115,1281.090210 1364.943848,1295.163086 
	C1360.308228,1305.200684 1355.399536,1315.114990 1350.459473,1325.007935 
	C1348.504761,1328.922119 1346.134644,1332.628784 1343.670288,1336.694214 
z"/>
<path fill="#FFFFFF" opacity="1.000000" stroke="none" 
	d="
M362.109161,753.983032 
	C351.260742,749.976685 340.862427,745.857788 330.345978,742.066528 
	C326.443329,740.659668 322.230743,740.138489 318.215942,739.012207 
	C300.082184,733.924866 281.450653,732.818237 262.831604,733.204773 
	C250.147110,733.468140 237.389511,735.027283 224.882233,737.238159 
	C217.139633,738.606873 209.748932,742.135193 202.302612,744.963501 
	C194.853134,747.793030 187.277206,750.467529 180.226166,754.116943 
	C173.481003,757.608154 167.212997,762.085083 160.967407,766.460266 
	C154.316483,771.119385 147.555725,775.741699 141.533493,781.149170 
	C133.331635,788.513794 125.352341,796.226257 118.067276,804.486023 
	C109.312477,814.412292 100.971848,824.770752 93.231735,835.504456 
	C86.765770,844.471069 81.423431,854.247986 74.688095,863.368225 
	C75.778564,860.039612 76.757561,856.669189 77.987961,853.393188 
	C79.499466,849.368835 81.101097,845.368958 82.877243,841.455383 
	C86.251518,834.020630 89.570236,826.548218 93.299980,819.290833 
	C96.906937,812.272278 100.626457,805.255188 104.984001,798.694031 
	C109.753311,791.512939 115.220139,784.784241 120.551712,777.990845 
	C124.985252,772.341675 129.416931,766.655884 134.293854,761.398621 
	C140.743896,754.445740 147.441498,747.696106 154.369247,741.219055 
	C164.043304,732.174133 173.735901,723.104736 183.972519,714.719666 
	C192.223495,707.961182 201.164764,702.011108 210.036484,696.054993 
	C217.891830,690.781250 225.890701,685.660767 234.175934,681.109253 
	C239.615463,678.121033 245.641891,676.174683 251.467438,673.921875 
	C260.576172,670.399231 269.560913,666.394531 278.920135,663.721008 
	C291.115967,660.237305 303.742523,658.276794 315.977051,654.909912 
	C340.753204,648.091736 366.063446,648.690002 391.303467,649.188293 
	C402.989258,649.419006 414.700562,651.265991 426.276215,653.144775 
	C434.003448,654.398926 441.618469,656.671082 449.091461,659.083252 
	C458.811310,662.220642 468.619965,665.338196 477.880402,669.578186 
	C489.285522,674.800171 500.822266,680.217224 511.092651,687.303040 
	C521.985901,694.818481 531.577393,704.259033 541.507935,713.116028 
	C546.785461,717.822937 551.831116,722.849365 556.520081,728.140442 
	C561.631348,733.907898 566.367981,740.029785 570.980103,746.211853 
	C577.377930,754.787292 583.615417,763.488159 589.700317,772.288391 
	C592.235901,775.955322 594.318176,779.954895 596.402954,783.910461 
	C601.063049,792.752625 605.677795,801.620850 610.159363,810.554443 
	C616.184937,822.566040 622.116455,834.625549 627.993591,846.710510 
	C631.580627,854.086487 635.003784,861.542419 638.475525,868.974060 
	C643.421387,879.561646 648.593079,890.053284 653.193726,900.789307 
	C656.527527,908.569275 659.045898,916.696228 662.009277,924.638062 
	C666.186096,935.831543 670.549011,946.956909 674.603821,958.193848 
	C676.234680,962.713440 677.126221,967.494263 678.589661,972.081055 
	C681.449951,981.045532 684.682251,989.895508 687.376099,998.907776 
	C690.177124,1008.278320 692.498657,1017.791504 695.077393,1027.229370 
	C697.139954,1034.778076 699.249695,1042.313965 701.383057,1049.842896 
	C703.216125,1056.312256 705.230591,1062.732422 706.950562,1069.230957 
	C709.086243,1077.300659 710.991516,1085.431152 713.015137,1093.530640 
	C714.999329,1101.472412 717.040466,1109.400269 718.996460,1117.348877 
	C721.821106,1128.827148 724.681702,1140.297852 727.342529,1151.814575 
	C728.469849,1156.693726 728.912354,1161.731323 730.045105,1166.609009 
	C732.543518,1177.367554 735.432129,1188.036377 737.864380,1198.808960 
	C739.217346,1204.801270 739.909058,1210.939819 741.014832,1216.991455 
	C742.405151,1224.600586 743.910950,1232.188721 745.373840,1239.784546 
	C745.892883,1242.479492 746.453430,1245.166748 746.957825,1247.864380 
	C748.648315,1256.902954 750.214844,1265.966309 752.032593,1274.979126 
	C753.813965,1283.811646 756.002930,1292.563965 757.676758,1301.415039 
	C758.239136,1304.388916 757.526123,1307.585327 757.869019,1310.626709 
	C758.050110,1312.233276 760.155518,1313.982666 759.805359,1315.217407 
	C758.984253,1318.112793 759.789124,1320.208374 760.781921,1322.868530 
	C762.206299,1326.685181 762.180725,1331.018066 763.067139,1335.066528 
	C764.227966,1340.368042 765.868774,1345.567139 766.957214,1350.881104 
	C769.189819,1361.781250 771.100830,1372.746948 773.316956,1383.650635 
	C775.240479,1393.114624 777.215088,1402.575928 779.509033,1411.954834 
	C782.029724,1422.260742 784.941284,1432.471069 787.879639,1443.459961 
	C785.126160,1441.048828 782.647156,1439.226074 780.590027,1437.011353 
	C774.490662,1430.444946 768.358948,1423.890381 762.605652,1417.024536 
	C753.901062,1406.636841 745.230164,1396.197632 737.076233,1385.379883 
	C731.779053,1378.352295 727.306030,1370.687012 722.678772,1363.174805 
	C715.440491,1351.423706 708.240417,1339.644287 701.303162,1327.714478 
	C696.878906,1320.106201 692.900696,1312.234863 688.830688,1304.425171 
	C685.791321,1298.593262 682.777344,1292.739136 680.020508,1286.770874 
	C676.865906,1279.941650 673.873352,1273.029541 671.055298,1266.054565 
	C667.466736,1257.172241 663.460754,1248.505615 660.742371,1239.207275 
	C658.135315,1230.289795 653.385620,1222.015381 649.833679,1213.353394 
	C645.418030,1202.585205 641.337952,1191.679810 636.978699,1180.888062 
	C632.499268,1169.798706 627.813049,1158.792847 623.327881,1147.705811 
	C622.492310,1145.640381 622.315491,1143.318115 621.603577,1141.191650 
	C617.180603,1127.980347 612.651428,1114.804688 608.237000,1101.590698 
	C604.431213,1090.198486 600.812622,1078.743530 596.959534,1067.367676 
	C593.679565,1057.683838 590.309814,1048.026367 586.753662,1038.441040 
	C581.265747,1023.648621 575.873718,1008.809570 569.898926,994.212219 
	C564.645996,981.378540 558.868469,968.745117 552.915710,956.216553 
	C547.522644,944.865967 542.008484,933.530518 535.758667,922.641296 
	C529.578796,911.873718 522.421631,901.666382 515.673279,891.226135 
	C511.397705,884.611572 507.537811,877.664856 502.686859,871.500183 
	C494.939453,861.654480 486.626373,852.244507 478.354126,842.824402 
	C472.401276,836.045532 466.280945,829.397400 459.955597,822.966003 
	C451.437439,814.305054 442.972260,805.626526 432.692993,798.839600 
	C424.086548,793.157166 416.351654,786.158752 407.770782,780.432434 
	C396.704865,773.047791 385.236542,766.256775 373.820496,759.411865 
	C370.252380,757.272400 366.292786,755.785889 362.109161,753.983032 
z"/>
<path fill="#960000" opacity="1.000000" stroke="none" 
	d="
M1432.921875,1173.937866 
	C1434.797729,1168.256958 1436.584595,1162.544800 1438.569336,1156.902222 
	C1441.928589,1147.352051 1445.656372,1137.925171 1448.791992,1128.304077 
	C1454.624756,1110.406128 1460.000366,1092.358887 1465.843872,1074.464600 
	C1469.581787,1063.017944 1473.752319,1051.710205 1477.850830,1040.384399 
	C1481.205444,1031.114380 1484.436279,1021.780945 1488.274902,1012.709534 
	C1492.738647,1002.160339 1497.832886,991.878662 1502.597046,981.455139 
	C1504.545044,977.193054 1506.098633,972.734924 1508.257446,968.587585 
	C1516.154175,953.416931 1523.777710,938.076355 1532.373901,923.305908 
	C1539.966919,910.259094 1548.216675,897.520874 1557.102051,885.320557 
	C1565.941895,873.183044 1575.588501,861.579346 1585.536865,850.320740 
	C1592.830688,842.066162 1600.929565,834.465027 1609.128662,827.082397 
	C1619.654053,817.604797 1630.417480,808.357483 1641.519531,799.568176 
	C1647.144531,795.114929 1653.580200,791.591675 1659.931519,788.172058 
	C1669.441162,783.051941 1679.092651,778.164368 1688.884766,773.609924 
	C1697.117432,769.780701 1705.514893,766.225464 1714.062988,763.176025 
	C1723.214111,759.911499 1732.518677,756.924561 1741.961792,754.681702 
	C1748.803223,753.056946 1755.960205,752.563843 1763.011719,752.070435 
	C1771.936157,751.446106 1780.933350,750.671814 1789.831055,751.173157 
	C1800.148682,751.754639 1810.574463,752.854736 1820.625977,755.158447 
	C1836.293457,758.749512 1851.373657,764.565735 1865.504150,772.206665 
	C1874.958008,777.318970 1883.648804,783.882019 1892.501099,790.054199 
	C1899.146240,794.687378 1905.673340,799.526978 1911.921143,804.677185 
	C1915.171753,807.356750 1917.866943,810.776550 1920.532104,814.088074 
	C1931.347534,827.525452 1942.471680,840.744324 1952.659790,854.646362 
	C1959.942383,864.583618 1966.035034,875.408203 1972.434937,885.972290 
	C1977.556641,894.426514 1982.467773,903.016113 1987.190918,911.698792 
	C1988.431396,913.979065 1988.626831,916.827942 1989.302246,919.415710 
	C1988.877808,919.680420 1988.453247,919.945190 1988.028809,920.209900 
	C1985.172607,918.120300 1982.168823,916.203491 1979.486450,913.910583 
	C1969.012329,904.957520 1957.840332,897.103821 1945.147705,891.589844 
	C1935.894531,887.570007 1926.516235,883.826233 1917.356689,879.605713 
	C1905.337158,874.067505 1892.575317,871.192993 1879.933228,867.599854 
	C1867.102783,863.953125 1854.012451,864.140930 1841.287598,861.624939 
	C1831.531860,859.695984 1821.981201,859.941162 1812.408813,860.208618 
	C1801.818115,860.504456 1791.269165,862.388611 1780.708984,863.639526 
	C1776.134644,864.181458 1771.463379,864.429199 1767.035156,865.578003 
	C1755.892944,868.468811 1744.646118,871.193115 1733.841675,875.093384 
	C1718.510498,880.627747 1703.051392,886.195801 1688.554321,893.540588 
	C1674.981201,900.417419 1662.388306,909.329773 1649.747681,917.911560 
	C1640.931030,923.897278 1632.602905,930.643127 1624.360474,937.418945 
	C1618.988770,941.834717 1614.189819,946.943298 1609.082642,951.685852 
	C1604.166504,956.251038 1598.882202,960.460571 1594.295776,965.331177 
	C1585.803223,974.349976 1577.547852,983.605286 1569.482178,993.009399 
	C1562.026489,1001.702026 1554.763184,1010.574890 1547.746948,1019.625549 
	C1536.964966,1033.533447 1526.237427,1047.495361 1515.918945,1061.747314 
	C1507.220459,1073.761841 1499.223511,1086.281982 1490.756592,1098.467407 
	C1482.512451,1110.332397 1474.272461,1122.210693 1465.644897,1133.795898 
	C1458.250488,1143.725342 1450.292603,1153.234253 1442.620972,1162.958374 
	C1439.721680,1166.633423 1436.926636,1170.390625 1433.628906,1174.123535 
	C1433.173828,1174.136597 1432.921997,1173.937866 1432.921875,1173.937866 
z"/>
<path fill="#960000" opacity="1.000000" stroke="none" 
	d="
M199.810059,764.923950 
	C207.140472,762.411987 214.071823,759.913879 221.031479,757.497253 
	C239.437866,751.106018 258.582611,750.512939 277.708893,751.176147 
	C288.521088,751.551025 299.538849,752.620911 309.991425,755.253906 
	C327.464569,759.655273 344.737610,765.018860 360.752747,773.719116 
	C369.811188,778.640198 379.338837,782.716431 388.278351,787.831665 
	C396.264008,792.401062 404.181122,797.316650 411.333038,803.068420 
	C425.076721,814.121521 438.556702,825.548523 451.547882,837.472168 
	C458.233734,843.608582 463.707306,851.084106 469.595917,858.066589 
	C478.176422,868.240906 487.156952,878.136047 494.999115,888.858093 
	C502.459991,899.058899 508.707458,910.150208 515.432739,920.884827 
	C519.830750,927.904846 524.282104,934.899048 528.419617,942.072083 
	C531.213074,946.914917 533.638428,951.985840 535.986450,957.066528 
	C540.503479,966.840637 544.930420,976.658447 549.241577,986.524963 
	C553.277039,995.760559 557.253906,1005.026794 561.000000,1014.382263 
	C564.842407,1023.978394 568.609680,1033.617310 571.988525,1043.383301 
	C577.520874,1059.373047 582.717834,1075.479126 588.045593,1091.539551 
	C592.062744,1103.649414 595.895996,1115.823486 600.114929,1127.862549 
	C605.035217,1141.902710 610.295654,1155.823486 615.373840,1169.808716 
	C615.751831,1170.849609 615.851562,1171.991699 615.161133,1173.710083 
	C611.578796,1169.405884 607.953491,1165.136475 604.423157,1160.789917 
	C597.488342,1152.251953 590.428223,1143.806519 583.772949,1135.054321 
	C580.077576,1130.194580 577.177856,1124.737305 573.770020,1119.649536 
	C569.209961,1112.841553 564.533142,1106.110962 559.854614,1099.383179 
	C554.545044,1091.748047 549.274231,1084.083130 543.812012,1076.557861 
	C536.913513,1067.054077 529.787659,1057.715576 522.858582,1048.233521 
	C518.491882,1042.258179 514.420288,1036.065796 510.008484,1030.125122 
	C504.966461,1023.335754 499.916901,1016.530029 494.475372,1010.063965 
	C482.671295,996.037415 470.794128,982.062866 458.572968,968.401428 
	C453.840118,963.110901 448.088715,958.733032 442.813995,953.925476 
	C437.397949,948.989136 432.305908,943.636841 426.528778,939.169067 
	C412.387573,928.232910 398.219666,917.285645 383.505096,907.152344 
	C373.498596,900.261230 362.758850,894.334106 351.949402,888.744812 
	C344.617950,884.954041 336.722992,882.112671 328.855530,879.531067 
	C316.191559,875.375549 303.465637,871.280212 290.531616,868.117554 
	C280.410950,865.642822 269.938019,864.602722 259.616577,862.956543 
	C246.317383,860.835510 232.936478,858.791016 219.475311,860.111938 
	C203.877914,861.642578 188.224609,863.301697 172.858917,866.268799 
	C161.112595,868.536987 149.565445,872.359497 138.316849,876.533875 
	C127.291656,880.625366 116.635193,885.787781 106.043770,890.945984 
	C97.740128,894.989990 89.517647,899.332153 81.756172,904.315918 
	C75.630760,908.249268 70.283401,913.388062 64.540253,917.927856 
	C63.283401,918.921265 61.813278,919.644836 60.441372,920.492676 
	C59.982277,920.234192 59.523178,919.975708 59.064079,919.717224 
	C61.063404,915.080566 62.663029,910.216248 65.147377,905.855957 
	C69.941353,897.441895 75.285835,889.343384 80.300758,881.052856 
	C82.971077,876.638306 85.330215,872.035156 88.012878,867.628662 
	C90.459084,863.610535 92.938095,859.580078 95.777435,855.839600 
	C103.880928,845.164001 111.811440,834.322083 120.513535,824.147339 
	C127.102966,816.442810 134.654266,809.538330 142.004288,802.515137 
	C146.571442,798.151001 151.204697,793.691162 156.436768,790.222168 
	C167.157242,783.114258 178.259140,776.575012 189.296326,769.955627 
	C192.511475,768.027405 196.039368,766.620667 199.810059,764.923950 
z"/>
<path fill="#960000" opacity="1.000000" stroke="none" 
	d="
M1202.362793,1376.317871 
	C1211.620605,1371.559692 1220.574097,1367.052856 1229.438354,1362.377075 
	C1238.816406,1357.430176 1248.109863,1352.322632 1258.861938,1346.517578 
	C1256.888306,1355.236084 1255.103516,1362.630859 1253.562500,1370.075928 
	C1252.231567,1376.505859 1251.327881,1383.024902 1249.967651,1389.447876 
	C1247.778076,1399.786133 1245.688232,1410.163086 1242.969604,1420.367310 
	C1239.633789,1432.888062 1235.740479,1445.261963 1231.991333,1457.670044 
	C1230.638062,1462.148926 1229.818726,1467.095337 1227.285156,1470.830933 
	C1224.370728,1475.128296 1220.274292,1478.998779 1215.912720,1481.873901 
	C1198.321167,1493.469849 1180.125732,1504.049316 1160.246582,1511.356812 
	C1144.120117,1517.285034 1128.092651,1523.547485 1111.729004,1528.740479 
	C1102.180786,1531.770630 1091.968140,1532.636353 1082.214600,1535.107544 
	C1067.714844,1538.781250 1052.989502,1538.877930 1038.214844,1539.043823 
	C1032.766113,1539.104980 1027.300659,1540.156006 1021.881409,1539.908691 
	C1005.366760,1539.154663 988.820984,1538.477173 972.386292,1536.799927 
	C962.411377,1535.781860 952.390625,1533.720581 942.796387,1530.796143 
	C926.248901,1525.751953 909.848389,1520.108276 893.710815,1513.875610 
	C882.108032,1509.394287 870.829285,1503.936890 859.790466,1498.177856 
	C851.543823,1493.875488 844.127991,1487.998169 835.948608,1483.544922 
	C826.195435,1478.235229 820.983337,1470.187988 818.237366,1459.702881 
	C815.621948,1449.716187 811.966492,1440.006714 809.078186,1430.084961 
	C807.428101,1424.416626 806.397156,1418.567993 805.086853,1412.800781 
	C802.222961,1400.196045 799.352966,1387.592773 796.496704,1374.986206 
	C794.706421,1367.084717 792.901001,1359.186279 791.194824,1351.266602 
	C790.929138,1350.033325 791.157776,1348.693481 791.157776,1346.751465 
	C797.765686,1350.324219 803.843140,1353.634644 809.943298,1356.902588 
	C818.725403,1361.607544 827.455872,1366.415894 836.333984,1370.932983 
	C846.224792,1375.965454 856.151184,1380.953857 866.259705,1385.524414 
	C874.569763,1389.281738 883.057922,1392.716431 891.664124,1395.731934 
	C907.556213,1401.300415 923.511780,1406.719238 939.601501,1411.679443 
	C948.266968,1414.350952 957.407227,1415.478149 966.080261,1418.129761 
	C979.272949,1422.163208 992.991516,1422.094238 1006.331482,1424.430908 
	C1014.077698,1425.787842 1021.662354,1426.232056 1029.205688,1425.802490 
	C1042.057373,1425.070679 1054.882324,1423.404663 1067.635132,1421.555298 
	C1077.151245,1420.175171 1086.665649,1418.373047 1095.948730,1415.890747 
	C1110.210205,1412.077393 1124.337891,1407.722168 1138.396362,1403.205322 
	C1147.933838,1400.140991 1157.422241,1396.795410 1166.628174,1392.862915 
	C1176.154297,1388.793457 1185.292480,1383.821045 1194.645996,1379.338989 
	C1197.014282,1378.204224 1199.556763,1377.433105 1202.362793,1376.317871 
z"/>
<path fill="#FFFFFF" opacity="1.000000" stroke="none" 
	d="
M839.072510,1505.917847 
	C842.640503,1507.714600 846.188904,1509.551514 849.780334,1511.300049 
	C859.230286,1515.900879 868.964172,1519.994629 878.091919,1525.161377 
	C889.116272,1531.401489 901.266785,1534.330811 913.020691,1538.421753 
	C917.852722,1540.103516 923.026672,1540.788086 928.023987,1542.012451 
	C937.364807,1544.301025 946.646545,1546.854736 956.042053,1548.885376 
	C960.172546,1549.777954 964.515808,1549.815308 968.772339,1549.970093 
	C980.350403,1550.390747 991.935669,1550.612671 1003.514160,1551.023438 
	C1009.102539,1551.221680 1014.685425,1551.992310 1020.265137,1551.936523 
	C1034.680420,1551.792480 1049.098755,1551.494629 1063.503784,1550.942261 
	C1073.015625,1550.577759 1082.557251,1550.071411 1091.991943,1548.883911 
	C1101.067871,1547.741943 1110.072266,1545.863647 1119.013306,1543.880981 
	C1124.465820,1542.671997 1129.777710,1540.768311 1135.084961,1538.976318 
	C1146.736572,1535.041992 1158.472290,1531.308228 1169.927246,1526.858154 
	C1177.847900,1523.781006 1185.439331,1519.804565 1193.017700,1515.917969 
	C1197.577026,1513.579712 1201.814575,1510.618408 1206.226807,1507.987305 
	C1207.949463,1506.960327 1209.754395,1506.070923 1212.885254,1504.384399 
	C1208.221069,1512.833618 1204.387695,1520.112671 1200.234619,1527.204224 
	C1196.336548,1533.860352 1192.519409,1540.631836 1187.913330,1546.788818 
	C1181.305420,1555.621338 1174.068970,1563.988525 1166.992798,1572.464111 
	C1162.743530,1577.553589 1158.526733,1582.708496 1153.858276,1587.398926 
	C1149.307983,1591.970947 1144.174316,1595.959229 1139.351807,1600.265381 
	C1137.460693,1601.954102 1135.771973,1603.867920 1133.900635,1605.580322 
	C1126.192505,1612.633911 1118.715088,1619.976440 1110.617432,1626.553589 
	C1105.934326,1630.357422 1100.212891,1632.875366 1094.999878,1636.039551 
	C1093.582520,1636.899902 1092.385010,1638.123047 1090.965820,1638.979614 
	C1080.338379,1645.394043 1069.232300,1650.647217 1057.207642,1654.049072 
	C1045.580566,1657.338379 1033.719971,1657.955811 1021.824402,1657.883423 
	C1014.161560,1657.836914 1006.213440,1657.738159 998.913940,1655.750610 
	C987.590210,1652.667358 976.330688,1648.748413 965.754944,1643.695557 
	C956.208008,1639.134033 947.491028,1632.760132 938.658508,1626.813477 
	C934.808228,1624.221191 931.493835,1620.794922 928.091064,1617.583130 
	C914.949158,1605.179810 901.293274,1593.251709 888.942566,1580.100708 
	C878.307617,1568.776978 868.797729,1556.318726 859.545715,1543.803711 
	C854.154785,1536.511475 850.199707,1528.149292 845.694519,1520.213867 
	C843.251953,1515.911621 841.010681,1511.494995 838.666565,1506.693848 
	C838.793884,1506.144287 838.933167,1506.031006 839.072510,1505.917847 
z"/>
<path fill="#960000" opacity="1.000000" stroke="none" 
	d="
M1433.303467,1174.231079 
	C1433.080200,1174.686401 1432.727295,1175.047363 1432.374512,1175.408203 
	C1432.400024,1175.008179 1432.425537,1174.608276 1432.686523,1174.072998 
	C1432.921997,1173.937866 1433.173828,1174.136597 1433.303467,1174.231079 
z"/>
<path fill="#FFFFFF" opacity="1.000000" stroke="none" 
	d="
M838.429810,1506.406006 
	C837.890076,1506.114990 837.575073,1505.675293 837.260071,1505.235718 
	C837.799805,1505.276123 838.339478,1505.316528 838.975830,1505.637451 
	C838.933167,1506.031006 838.793884,1506.144287 838.429810,1506.406006 
z"/>
</svg>